<svg width="16" height="19" viewBox="0 0 16 19" fill="none" xmlns="http://www.w3.org/2000/svg">
<g clip-path="url(#clip0_5_89)">
<path d="M3.42857 1.14286V2.28571H1.71429C0.767857 2.28571 0 3.05357 0 4V5.71429H16V4C16 3.05357 15.2321 2.28571 14.2857 2.28571H12.5714V1.14286C12.5714 0.510714 12.0607 0 11.4286 0C10.7964 0 10.2857 0.510714 10.2857 1.14286V2.28571H5.71429V1.14286C5.71429 0.510714 5.20357 0 4.57143 0C3.93929 0 3.42857 0.510714 3.42857 1.14286ZM16 6.85714H0V16.5714C0 17.5179 0.767857 18.2857 1.71429 18.2857H14.2857C15.2321 18.2857 16 17.5179 16 16.5714V6.85714Z" fill="white"/>
</g>
<defs>
<clipPath id="clip0_5_89">
<rect width="16" height="18.2857" fill="white"/>
</clipPath>
</defs>
</svg>
